<svg width="58px" height="64px" xmlns="http://www.w3.org/2000/svg" viewBox="0 0 58 64">
    <defs><style>.cls-1{fill:#b057ff;}.cls-1,.cls-2{fill-rule:evenodd;}.cls-2{fill:#05ddb9;}</style></defs>
    <path class="cls-1" d="M29.5,24.64a7.14,7.14,0,1,1,7.14-7.14,7.15,7.15,0,0,1-7.14,7.14M29.5,0A17.5,17.5,0,1,0,47,17.5,17.52,17.52,0,0,0,29.5,0"/>
    <path class="cls-2" d="M7.29,64,0,60.79,7.23,44.38a7.27,7.27,0,0,1,6.64-4.32H44.38a7.22,7.22,0,0,1,6.68,4.44L57.9,60.73l-7.34,3.09L43.91,48H14.33Z"/>
</svg>