<svg xmlns="http://www.w3.org/2000/svg" width="60" height="74" viewBox="0 0 60 74">
  <g fill="none" fill-rule="evenodd" transform="translate(-1)">
    <path fill="#03C9EA" d="M43.7774221,50 C41.9172704,52.6047679 39.6338669,54.8769248 37,56.6700125 L54.3924179,74 L61,67.1616288 L43.7774221,50 Z"/>
    <path fill="#FF4F4F" d="M22.5312323,42.3809 C22.2711032,42.40565 22.0069097,42.42215 21.7386516,42.42215 C17.0766516,42.42215 13.2831032,38.57215 13.2831032,33.840775 C13.2831032,29.108025 17.0766516,25.258025 21.7386516,25.258025 C26.4006516,25.258025 30.1942,29.108025 30.1942,33.840775 C30.1942,34.657525 30.0736194,35.446775 29.8622645,36.197525 C28.9206516,39.536025 26.0362,42.04815 22.5312323,42.3809 M0.998780645,33.840775 C0.998780645,45.445775 10.3038129,54.886525 21.7386516,54.886525 C25.5511677,54.886525 29.1116839,53.8209 32.1844581,51.99215 C34.9496839,50.346275 37.3125226,48.080275 39.0697484,45.366025 C41.2171677,42.052275 42.4771677,38.095025 42.4771677,33.840775 C42.4771677,22.2344 33.1734903,12.792275 21.7386516,12.792275 C10.3038129,12.792275 0.998780645,22.2344 0.998780645,33.840775 Z"/>
    <path fill="#4A5BCF" d="M47,20 C47,12.0472335 44.951417,10 37,10 C44.951417,10 47,7.951417 47,0 C47,7.951417 49.048583,10 57,10 C49.048583,10 47,12.0472335 47,20"/>
  </g>
</svg>
